<?xml version="1.0" encoding="UTF-8" standalone="no"?>
<!-- Created with Inkscape (http://www.inkscape.org/) -->

<svg
   width="300.35303mm"
   height="150.01765mm"
   viewBox="0 0 300.35303 150.01765"
   version="1.1"
   id="svg5"
   inkscape:version="1.1.2 (1:1.1+202202050950+0a00cf5339)"
   sodipodi:docname="godboard.svg"
   xmlns:inkscape="http://www.inkscape.org/namespaces/inkscape"
   xmlns:sodipodi="http://sodipodi.sourceforge.net/DTD/sodipodi-0.dtd"
   xmlns="http://www.w3.org/2000/svg"
   xmlns:svg="http://www.w3.org/2000/svg">
  <sodipodi:namedview
     id="namedview7"
     pagecolor="#ffffff"
     bordercolor="#666666"
     borderopacity="1.0"
     inkscape:pageshadow="2"
     inkscape:pageopacity="0.0"
     inkscape:pagecheckerboard="0"
     inkscape:document-units="mm"
     showgrid="false"
     inkscape:zoom="0.93859299"
     inkscape:cx="559.8806"
     inkscape:cy="352.65552"
     inkscape:window-width="1920"
     inkscape:window-height="1043"
     inkscape:window-x="0"
     inkscape:window-y="0"
     inkscape:window-maximized="1"
     inkscape:current-layer="layer1" />
  <defs
     id="defs2" />
  <g
     inkscape:label="Layer 1"
     inkscape:groupmode="layer"
     id="layer1"
     transform="translate(-29.897213,-87.146248)">
    <rect
       style="fill:#ffffff;stroke:none;stroke-width:4.99999;stroke-linecap:round;stroke-linejoin:round;stop-color:#000000"
       id="rect12171"
       width="300.35303"
       height="150.01765"
       x="29.897213"
       y="87.146248" />
    <path
       style="fill:#ffd42a;stroke:#000000;stroke-width:3.95597;stroke-linecap:round;stroke-linejoin:round;stop-color:#000000"
       d="m 109.92087,183.29908 c -8.08414,1.6444 -15.48848,5.77593 -22.640207,9.71539 -4.789061,2.63801 -9.897993,4.67962 -14.722385,7.25721 -1.4368,0.76766 -8.173991,4.30474 -8.757761,5.41457 -0.371418,0.7061 0.305576,2.32552 0.522087,3.01883 1.384098,4.43211 3.231411,3.81742 7.934765,3.22099 1.722364,-0.21841 3.450394,-0.41569 5.15456,-0.74743 8.976623,-1.74741 17.829784,-4.44471 26.432091,-7.52011 9.81385,-3.50853 17.81843,-6.62985 23.75606,-15.28732 0.75933,-1.10714 4.33012,-5.89507 4.02705,-7.36019 -0.0634,-0.30705 -7.95337,0.0743 -8.85761,0.12719 -1.33421,0.078 -12.51577,0.70904 -12.84865,2.16087 z"
       id="path2142" />
    <g
       id="g12041"
       transform="matrix(0.77123969,-0.17657379,0.17657379,0.77123969,6.9614187,50.040939)">
      <path
         style="fill:#ffffff;stroke:#000000;stroke-width:4.99999;stop-color:#000000"
         d="m 67.746085,139.57055 c 4.768435,15.88467 1.090944,33.39969 2.397969,49.33419"
         id="path1089" />
      <path
         style="fill:#ffffff;stroke:#000000;stroke-width:4.99999;stop-color:#000000"
         d="m 68.806488,88.44423 c -5.396997,-0.385908 -7.772313,1.786681 -10.143982,6.299489 -2.935817,5.586261 -6.104099,14.893411 -4.941681,21.313821 1.79846,9.93349 19.12921,9.64065 25.518686,5.05746 2.91225,-2.08897 4.470707,-5.62974 5.904167,-8.78679 1.926838,-4.24366 4.569655,-10.36129 2.048973,-14.967053 -1.782834,-3.257577 -5.84884,-4.546082 -8.993534,-5.916843 -0.841965,-0.367009 -1.541468,-0.989356 -2.367029,-1.370385 -2.801363,-1.29294 -5.974776,-1.47111 -8.999193,-1.71872"
         id="path966" />
      <path
         style="fill:#ffffff;stroke:#000000;stroke-width:4.99999;stop-color:#000000"
         d="m 67.241377,97.664031 c -0.659038,2.485769 -0.927312,5.060129 -1.110226,7.619699"
         id="path968" />
      <path
         style="fill:#ffffff;stroke:#000000;stroke-width:4.99999;stop-color:#000000"
         d="m 75.408837,100.02911 c 0.3971,2.54055 0.264398,5.03946 -0.08222,7.56313"
         id="path970" />
      <path
         style="fill:#ffffff;stroke:#000000;stroke-width:4.99999;stop-color:#000000"
         d="m 67.031718,113.20415 c -10.665725,-3.76353 -17.785995,-1.36529 -19.561971,10.62415 -0.383826,2.59117 -0.418754,5.05021 -0.454277,7.67297 -0.07809,5.76565 -0.899154,14.90912 5.439241,17.92669 1.707909,0.8131 5.087194,2.38363 6.214774,0.0345 0.04914,-0.10238 1.532977,-4.48546 1.980994,-3.72716 1.896168,3.20943 2.678723,7.04991 3.743356,10.58694 0.103735,0.34464 -0.311869,-0.68212 -0.286223,-1.04112 0.09622,-1.347 0.860144,-2.27513 1.870855,-3.11667 2.437225,-2.0293 4.841846,-4.07254 7.170605,-6.25044 0.658786,-0.6161 1.605767,-2.27916 2.438228,-2.60829 0.224859,-0.0889 5.172798,5.43609 5.656527,5.98038 0.556488,0.62615 2.274808,2.45872 1.734852,1.81825 -0.606819,-0.71977 0.410583,-2.82939 0.580911,-3.55325 0.379913,-1.61456 0.800404,-3.27146 1.016188,-4.91759 0.208082,-1.58735 0.130821,-3.35265 0.633926,-4.89798 0.05201,-0.15977 0.42073,0.31657 0.531553,0.24794 0.367377,-0.22752 0.590116,-0.92667 0.664432,-1.30887 1.133825,-5.83118 -2.415394,-22.19047 -8.651954,-24.12428 -1.277829,-0.39623 -7.665453,-1.17141 -8.822618,-0.54123 -1.263896,0.6883 0.173916,0.93415 -1.899399,1.19506 z"
         id="path974" />
      <path
         style="fill:#ffffff;stroke:#000000;stroke-width:4.99999;stroke-linecap:round;stop-color:#000000"
         d="m 70.179757,165.5069 c -5.814356,1.58174 -20.122639,0.93361 -25.132178,3.67707"
         id="path1091" />
      <path
         style="fill:#ffffff;stroke:#000000;stroke-width:4.99999;stroke-linecap:round;stop-color:#000000"
         d="m 70.179757,165.5069 c 10.040041,-1.57245 20.708215,1.09794 30.624893,-1.48219"
         id="path1093" />
      <path
         style="fill:#ffffff;stroke:#000000;stroke-width:4.99999;stroke-linecap:round;stop-color:#000000"
         d="m 70.144054,188.90474 c -4.218119,6.54358 -9.418468,12.10141 -14.863802,17.80377"
         id="path1095" />
      <path
         style="fill:#ffffff;stroke:#000000;stroke-width:4.99999;stroke-linecap:round;stop-color:#000000"
         d="m 70.144054,188.90474 c 5.819593,5.10826 9.751087,13.51262 16.050316,17.726"
         id="path1099" />
    </g>
    <path
       style="fill:#ffffff;stroke:#000000;stroke-width:3.95597;stop-color:#000000"
       d="m 81.32498,212.87151 c -2.511647,-0.70277 -5.111722,-0.70891 -5.01859,2.45742 0.05575,1.89536 0.375313,2.10306 2.253371,2.65895 0.714268,0.21141 1.395907,0.38091 2.143522,0.39872 0.801465,0.0191 1.913063,0.0483 2.56915,-0.49373 2.128731,-1.75852 -0.622015,-5.48183 -1.947453,-5.02136 z"
       id="path2500" />
    <path
       style="fill:#ffffff;stroke:#000000;stroke-width:3.95597;stop-color:#000000"
       d="m 123.11683,194.70012 c -2.05855,0.58212 -1.9756,5.38848 -0.83084,6.79651 1.00424,1.23519 4.63421,1.46551 5.88958,0.52438 0.79289,-0.59443 0.76477,-2.26517 0.78853,-3.12065 0.0252,-0.90961 0.13708,-1.89731 -0.22999,-2.7628 -0.68282,-1.61001 -2.4998,-2.17247 -4.15858,-2.26105 -0.0959,-0.005 -1.56769,-0.0532 -1.58268,0.0328 -0.007,0.0418 0.12033,0.76197 0.12398,0.79075 z"
       id="path2502" />
    <g
       id="g18733"
       transform="translate(0,-4.1796766)">
      <g
         id="g18644">
        <g
           aria-label="godboard"
           transform="matrix(0.63574877,0,0,0.63574877,-240.97538,-12.438859)"
           id="text2940"
           style="font-size:39.9999px;line-height:1;font-family:Acre;-inkscape-font-specification:Acre;letter-spacing:0px;word-spacing:0px;baseline-shift:baseline;vector-effect:none;stroke-width:0.999999;stop-color:#000000">
          <path
             d="m 638.09292,269.41947 -1.95312,-2.28515 -5.29296,-1.17187 -5.85936,2.18749 -1.99218,7.57811 3.10546,7.0117 6.85545,2.92968 4.08202,-1.91406 -0.13672,4.78515 -2.1289,0.97656 -4.76561,-3.14452 -4.68749,3.59374 3.90624,3.88671 5.64452,2.53905 8.45701,-4.08202 1.38671,-25.52728 -6.46482,-0.9375 z m -0.9375,7.61717 -0.8789,1.44531 -2.57812,0.41016 -2.59765,-2.01172 -0.19531,-1.42578 1.66015,-1.83593 1.62109,0.13672 2.85155,2.03124 z"
             style="font-family:'Super Mario 286';-inkscape-font-specification:'Super Mario 286, '"
             id="path12080" />
          <path
             d="m 664.77254,267.73979 2.83202,9.04295 -5.15623,8.45701 -11.05466,-1.32813 -5.21483,-10.21481 4.31639,-7.48045 7.46092,-1.42578 z m -7.92967,4.2578 -2.4414,2.38281 1.66015,2.3828 2.69531,0.0781 0.97656,-2.87109 -2.89062,-1.97265 z"
             style="font-family:'Super Mario 286';-inkscape-font-specification:'Super Mario 286, '"
             id="path12082" />
          <path
             d="m 691.12013,255.84529 -8.33982,0.0976 0.89843,11.75779 -2.79296,-2.96875 -5.66405,0.46875 -4.90233,6.23046 -0.19531,8.92576 4.96092,5.1367 5.58593,-0.50781 3.20311,-1.8164 0.66406,2.14843 7.34374,-0.37109 z m -7.61717,20.48823 -2.51952,1.87499 -3.49609,-3.45702 2.55859,-2.96874 3.02733,1.83593 z"
             style="font-family:'Super Mario 286';-inkscape-font-specification:'Super Mario 286, '"
             id="path12084" />
          <path
             d="m 694.32325,283.98975 7.30467,0.72265 0.78125,-2.1289 3.10546,1.97265 5.54686,0.78125 5.1953,-4.90233 0.23437,-8.92576 -4.58983,-6.4453 -5.64452,-0.74218 -2.92968,2.83202 1.46484,-11.69919 -8.32029,-0.50781 z m 9.33591,-10.89841 3.10546,-1.69922 2.42187,3.10546 -3.67186,3.28125 -2.42187,-1.99219 z"
             style="font-family:'Super Mario 286';-inkscape-font-specification:'Super Mario 286, '"
             id="path12086" />
          <path
             d="m 736.95986,267.73979 2.83202,9.04295 -5.15623,8.45701 -11.05466,-1.32813 -5.21483,-10.21481 4.31639,-7.48045 7.46092,-1.42578 z m -7.92967,4.2578 -2.4414,2.38281 1.66015,2.3828 2.69531,0.0781 0.97656,-2.87109 -2.89062,-1.97265 z"
             style="font-family:'Super Mario 286';-inkscape-font-specification:'Super Mario 286, '"
             id="path12088" />
          <path
             d="m 755.10435,265.68901 -8.76951,-1.24999 -4.68749,5.7617 4.58983,3.33984 3.88671,-3.04687 0.89844,2.71484 -5.41014,1.17187 -3.78906,3.57421 -0.11718,3.88671 5.07811,3.78905 6.79686,-2.32421 3.16405,2.53905 4.17968,-3.49608 -3.78906,-2.42187 0.89844,-10.56638 z m -3.22265,14.35544 -4.80467,-0.625 4.72655,-1.8164 z"
             style="font-family:'Super Mario 286';-inkscape-font-specification:'Super Mario 286, '"
             id="path12090" />
          <path
             d="m 772.70197,274.12649 1.85546,1.99218 5.78124,-1.71874 -1.1914,-4.6289 -5.07812,-3.43749 -4.84374,2.51953 0.0586,-2.40234 -6.48436,0.27344 0.0391,18.63276 h 7.40233 l -0.39063,-9.37497 z"
             style="font-family:'Super Mario 286';-inkscape-font-specification:'Super Mario 286, '"
             id="path12092" />
          <path
             d="m 804.49875,255.84529 -8.33982,0.0976 0.89844,11.75779 -2.79297,-2.96875 -5.66404,0.46875 -4.90234,6.23046 -0.19531,8.92576 4.96093,5.1367 5.58592,-0.50781 3.20312,-1.8164 0.66406,2.14843 7.34373,-0.37109 z m -7.61717,20.48823 -2.51952,1.87499 -3.49609,-3.45702 2.55859,-2.96874 3.02734,1.83593 z"
             style="font-family:'Super Mario 286';-inkscape-font-specification:'Super Mario 286, '"
             id="path12094" />
        </g>
        <g
           aria-label="TM"
           transform="matrix(0.31960384,0,0,0.31960384,74.721345,62.804926)"
           id="text9754"
           style="font-size:39.9999px;line-height:1;font-family:Acre;-inkscape-font-specification:Acre;letter-spacing:0px;word-spacing:0px;baseline-shift:baseline;vector-effect:none;stroke-width:0.999999;stop-color:#000000">
          <path
             d="m 622.40936,255.37654 29.55071,0.52734 v 11.99216 l -9.99997,-1.64062 2.77343,18.84761 h -14.31637 l 2.14843,-18.84761 -10.15623,-0.50781 z"
             style="font-family:'Super Mario 286';-inkscape-font-specification:'Super Mario 286, '"
             id="path12097" />
          <path
             d="m 654.03038,282.0171 14.27731,-26.42572 h 8.43748 l 2.81249,7.98826 4.96092,-8.02732 7.48045,-0.17578 8.18358,28.76946 -10.66404,0.8789 -2.05077,-7.28514 -2.4414,-7.03123 -7.36327,6.56249 -5.62498,-7.48045 -6.77733,14.35543 z"
             style="font-family:'Super Mario 286';-inkscape-font-specification:'Super Mario 286, '"
             id="path12099" />
        </g>
      </g>
      <g
         aria-label="literally the best keyboard made ever."
         transform="matrix(0.2067166,0,0,0.2067166,53.307288,112.48895)"
         id="text13900"
         style="font-size:39.9999px;line-height:1;font-family:Acre;-inkscape-font-specification:Acre;letter-spacing:0px;word-spacing:0px;baseline-shift:baseline;opacity:1;vector-effect:none;stroke-width:0.999999;stop-color:#000000;stop-opacity:1">
        <path
           d="m 492.39309,327.07979 0.17578,28.9257 6.97264,0.78125 1.48438,-28.82805 z"
           style="font-family:'Super Mario 286';-inkscape-font-specification:'Super Mario 286, '"
           id="path18769" />
        <path
           d="m 502.95947,339.54069 0.15625,16.66012 5.8789,0.44921 1.24999,-16.60152 z m 7.51952,-6.6992 -0.29297,5.07811 -7.22655,-0.58593 0.29297,-5.05859 z"
           style="font-family:'Super Mario 286';-inkscape-font-specification:'Super Mario 286, '"
           id="path18771" />
        <path
           d="m 516.57272,330.5954 0.44922,8.14451 -3.90624,-0.17578 -0.21484,5.62499 3.76952,0.17578 -0.0391,12.16794 7.75388,-0.0586 -1.13281,-11.77731 3.94531,-0.17578 -0.15625,-5.78124 -4.08203,0.15625 0.23438,-8.24216 z"
           style="font-family:'Super Mario 286';-inkscape-font-specification:'Super Mario 286, '"
           id="path18773" />
        <path
           d="m 546.16249,339.4235 -4.53124,-2.65624 -7.44138,0.625 -4.35546,6.09373 0.33203,7.46092 4.64843,4.96093 5.58592,0.80078 5.8203,-2.03125 2.65624,-4.68749 -4.74608,-2.77343 -4.35546,3.49609 -3.49608,-2.92968 11.5234,-2.20703 z m -8.80857,1.79688 3.67187,1.1328 -4.80468,0.85938 z"
           style="font-family:'Super Mario 286';-inkscape-font-specification:'Super Mario 286, '"
           id="path18775" />
        <path
           d="m 560.65464,345.71255 1.85547,1.99218 5.78123,-1.71874 -1.1914,-4.6289 -5.07811,-3.43749 -4.84374,2.51953 0.0586,-2.40234 -6.48436,0.27344 0.0391,18.63276 h 7.40232 l -0.39062,-9.37497 z"
           style="font-family:'Super Mario 286';-inkscape-font-specification:'Super Mario 286, '"
           id="path18777" />
        <path
           d="m 584.24833,337.27507 -8.76951,-1.24999 -4.68749,5.7617 4.58984,3.33984 3.88671,-3.04687 0.89843,2.71484 -5.41014,1.17187 -3.78906,3.57421 -0.11718,3.88671 5.07811,3.78905 6.79686,-2.32421 3.16405,2.53905 4.17968,-3.49608 -3.78905,-2.42187 0.89843,-10.56638 z m -3.22265,14.35544 -4.80467,-0.625 4.72655,-1.8164 z"
           style="font-family:'Super Mario 286';-inkscape-font-specification:'Super Mario 286, '"
           id="path18779" />
        <path
           d="m 592.15847,327.07979 0.17579,28.9257 6.97263,0.78125 1.48438,-28.82805 z"
           style="font-family:'Super Mario 286';-inkscape-font-specification:'Super Mario 286, '"
           id="path18781" />
        <path
           d="m 602.66626,327.07979 0.17578,28.9257 6.97264,0.78125 1.48437,-28.82805 z"
           style="font-family:'Super Mario 286';-inkscape-font-specification:'Super Mario 286, '"
           id="path18783" />
        <path
           d="m 612.78342,339.13054 0.82031,10.27341 5.17577,5.70311 4.66796,-0.95703 -0.72266,2.48046 -7.8906,2.22656 4.76561,7.61717 8.67186,-4.60936 2.65624,-5.95702 0.8789,-17.59761 -8.08591,-0.17578 -0.39063,9.082 -2.79296,1.21094 -0.46875,-10.72263 z"
           style="font-family:'Super Mario 286';-inkscape-font-specification:'Super Mario 286, '"
           id="path18785" />
        <path
           d="m 647.62708,330.5954 0.44922,8.14451 -3.90624,-0.17578 -0.21485,5.62499 3.76953,0.17578 -0.0391,12.16794 7.75389,-0.0586 -1.13281,-11.77731 3.9453,-0.17578 -0.15625,-5.78124 -4.08202,0.15625 0.23438,-8.24216 z"
           style="font-family:'Super Mario 286';-inkscape-font-specification:'Super Mario 286, '"
           id="path18787" />
        <path
           d="m 660.79112,327.9001 -0.35156,28.86711 h 7.40232 l -0.39062,-9.37498 3.28124,-1.58202 0.44922,10.78122 h 6.50389 l 0.33203,-14.39449 -5.1953,-4.23828 -5.99608,2.30469 0.44922,-12.63669 z"
           style="font-family:'Super Mario 286';-inkscape-font-specification:'Super Mario 286, '"
           id="path18789" />
        <path
           d="m 696.1426,339.4235 -4.53124,-2.65624 -7.44139,0.625 -4.35546,6.09373 0.33203,7.46092 4.64843,4.96093 5.58592,0.80078 5.8203,-2.03125 2.65624,-4.68749 -4.74608,-2.77343 -4.35546,3.49609 -3.49608,-2.92968 11.52341,-2.20703 z m -8.80858,1.79688 3.67187,1.1328 -4.80468,0.85938 z"
           style="font-family:'Super Mario 286';-inkscape-font-specification:'Super Mario 286, '"
           id="path18791" />
        <path
           d="m 710.16598,355.57581 7.30467,0.72265 0.78125,-2.1289 3.10546,1.97265 5.54686,0.78125 5.1953,-4.90233 0.23438,-8.92576 -4.58983,-6.4453 -5.64452,-0.74218 -2.92968,2.83202 1.46484,-11.69919 -8.32029,-0.50781 z m 9.33592,-10.89841 3.10546,-1.69922 2.42187,3.10546 -3.67187,3.28125 -2.42187,-1.99219 z"
           style="font-family:'Super Mario 286';-inkscape-font-specification:'Super Mario 286, '"
           id="path18793" />
        <path
           d="m 751.27918,339.4235 -4.53124,-2.65624 -7.44139,0.625 -4.35546,6.09373 0.33203,7.46092 4.64843,4.96093 5.58592,0.80078 5.8203,-2.03125 2.65624,-4.68749 -4.74608,-2.77343 -4.35546,3.49609 -3.49608,-2.92968 11.52341,-2.20703 z m -8.80857,1.79688 3.67186,1.1328 -4.80467,0.85938 z"
           style="font-family:'Super Mario 286';-inkscape-font-specification:'Super Mario 286, '"
           id="path18795" />
        <path
           d="m 773.81819,342.13834 -3.35937,4.14062 -5.80076,-3.3789 -0.99609,1.25 8.90622,6.01561 -0.0781,3.96483 -3.33984,2.48046 h -8.37888 l -5.83983,-4.64842 2.53905,-4.23827 6.42577,3.55467 0.76172,-1.17187 -8.78904,-5.09764 3.37889,-5.62499 3.35937,-2.08984 6.54295,-0.11718 4.66796,4.96092 z"
           style="font-family:'Super Mario 286';-inkscape-font-specification:'Super Mario 286, '"
           id="path18797" />
        <path
           d="m 779.0916,330.5954 0.44922,8.14451 -3.90624,-0.17578 -0.21484,5.62499 3.76952,0.17578 -0.0391,12.16794 7.75388,-0.0586 -1.13281,-11.77731 3.94531,-0.17578 -0.15625,-5.78124 -4.08202,0.15625 0.23437,-8.24216 z"
           style="font-family:'Super Mario 286';-inkscape-font-specification:'Super Mario 286, '"
           id="path18799" />
        <path
           d="m 802.35327,328.36884 h 6.54295 l -0.2539,14.53122 7.24607,-5.5078 4.47265,3.88671 -7.98826,5.95702 8.37888,4.8828 -5.15624,4.55077 -7.0117,-6.21093 1.28906,6.26952 h -8.04685 l 0.52734,-28.35931 z"
           style="font-family:'Super Mario 286';-inkscape-font-specification:'Super Mario 286, '"
           id="path18801" />
        <path
           d="m 838.54457,339.4235 -4.53124,-2.65624 -7.44138,0.625 -4.35546,6.09373 0.33203,7.46092 4.64843,4.96093 5.58592,0.80078 5.8203,-2.03125 2.65624,-4.68749 -4.74608,-2.77343 -4.35546,3.49609 -3.49608,-2.92968 11.5234,-2.20703 z m -8.80857,1.79688 3.67187,1.1328 -4.80468,0.85938 z"
           style="font-family:'Super Mario 286';-inkscape-font-specification:'Super Mario 286, '"
           id="path18803" />
        <path
           d="m 842.95865,339.13054 0.82031,10.27341 5.17577,5.70311 4.66795,-0.95703 -0.72265,2.48046 -7.89061,2.22656 4.76562,7.61717 8.67185,-4.60936 2.65624,-5.95702 0.87891,-17.59761 -8.08592,-0.17578 -0.39062,9.082 -2.79297,1.21094 -0.46875,-10.72263 z"
           style="font-family:'Super Mario 286';-inkscape-font-specification:'Super Mario 286, '"
           id="path18805" />
        <path
           d="m 863.7789,355.57581 7.30467,0.72265 0.78125,-2.1289 3.10546,1.97265 5.54686,0.78125 5.1953,-4.90233 0.23437,-8.92576 -4.58983,-6.4453 -5.64452,-0.74218 -2.92968,2.83202 1.46484,-11.69919 -8.32029,-0.50781 z m 9.33591,-10.89841 3.10546,-1.69922 2.42187,3.10546 -3.67186,3.28125 -2.42187,-1.99219 z"
           style="font-family:'Super Mario 286';-inkscape-font-specification:'Super Mario 286, '"
           id="path18807" />
        <path
           d="m 906.41551,339.32585 2.83203,9.04294 -5.15624,8.45702 -11.05466,-1.32813 -5.21483,-10.21481 4.31639,-7.48046 7.46092,-1.42577 6.81639,2.94921 z m -7.92967,4.2578 -2.4414,2.38281 1.66016,2.3828 2.6953,0.0781 0.97656,-2.87109 -2.89062,-1.97265 z"
           style="font-family:'Super Mario 286';-inkscape-font-specification:'Super Mario 286, '"
           id="path18809" />
        <path
           d="m 924.55999,337.27507 -8.76951,-1.24999 -4.68749,5.7617 4.58984,3.33984 3.88671,-3.04687 0.89843,2.71484 -5.41014,1.17187 -3.78905,3.57421 -0.11719,3.88671 5.07811,3.78905 6.79686,-2.32421 3.16405,2.53905 4.17968,-3.49608 -3.78905,-2.42187 0.89843,-10.56638 z m -3.22265,14.35544 -4.80467,-0.625 4.72655,-1.8164 z"
           style="font-family:'Super Mario 286';-inkscape-font-specification:'Super Mario 286, '"
           id="path18811" />
        <path
           d="m 942.1576,345.71255 1.85546,1.99218 5.78124,-1.71874 -1.19141,-4.6289 -5.07811,-3.43749 -4.84374,2.51953 0.0586,-2.40234 -6.48436,0.27344 0.0391,18.63276 h 7.40232 l -0.39062,-9.37497 z"
           style="font-family:'Super Mario 286';-inkscape-font-specification:'Super Mario 286, '"
           id="path18813" />
        <path
           d="m 973.95441,327.43135 -8.33982,0.0976 0.89843,11.75779 -2.79296,-2.96875 -5.66405,0.46875 -4.90233,6.23046 -0.19531,8.92575 4.96093,5.13671 5.58592,-0.50781 3.20312,-1.8164 0.66406,2.14843 7.34373,-0.37109 z m -7.61717,20.48823 -2.51952,1.87499 -3.49609,-3.45702 2.55859,-2.96874 3.02734,1.83593 z"
           style="font-family:'Super Mario 286';-inkscape-font-specification:'Super Mario 286, '"
           id="path18815" />
        <path
           d="m 1007.5285,345.92739 0.4493,10.78123 h 6.5039 l 0.332,-14.3945 -5.1953,-4.23827 -5.9961,2.30468 -3.6328,-2.24608 -5.99608,2.30468 0.0586,-2.40234 -6.48435,0.27344 0.0391,18.63276 h 7.40232 l -0.39062,-9.37497 3.28124,-1.58203 0.44922,10.78122 h 6.50392 l 0.2148,-9.64841 z"
           style="font-family:'Super Mario 286';-inkscape-font-specification:'Super Mario 286, '"
           id="path18817" />
        <path
           d="m 1030.673,337.27507 -8.7695,-1.24999 -4.6875,5.7617 4.5899,3.33984 3.8867,-3.04687 0.8984,2.71484 -5.4101,1.17187 -3.7891,3.57421 -0.1172,3.88671 5.0781,3.78905 6.7969,-2.32421 3.1641,2.53905 4.1796,-3.49608 -3.789,-2.42187 0.8984,-10.56638 z m -3.2226,14.35544 -4.8047,-0.625 4.7266,-1.8164 z"
           style="font-family:'Super Mario 286';-inkscape-font-specification:'Super Mario 286, '"
           id="path18819" />
        <path
           d="m 1060.0675,327.43135 -8.3398,0.0976 0.8984,11.75779 -2.793,-2.96875 -5.664,0.46875 -4.9024,6.23046 -0.1953,8.92575 4.961,5.13671 5.5859,-0.50781 3.2031,-1.8164 0.6641,2.14843 7.3437,-0.37109 z m -7.6172,20.48823 -2.5195,1.87499 -3.4961,-3.45702 2.5586,-2.96874 3.0273,1.83593 z"
           style="font-family:'Super Mario 286';-inkscape-font-specification:'Super Mario 286, '"
           id="path18821" />
        <path
           d="m 1080.1846,339.4235 -4.5312,-2.65624 -7.4414,0.625 -4.3555,6.09373 0.3321,7.46092 4.6484,4.96093 5.5859,0.80078 5.8203,-2.03125 2.6563,-4.68749 -4.7461,-2.77343 -4.3555,3.49609 -3.4961,-2.92968 11.5234,-2.20703 z m -8.8086,1.79688 3.6719,1.1328 -4.8047,0.85938 z"
           style="font-family:'Super Mario 286';-inkscape-font-specification:'Super Mario 286, '"
           id="path18823" />
        <path
           d="m 1111.1221,339.4235 -4.5313,-2.65624 -7.4414,0.625 -4.3554,6.09373 0.332,7.46092 4.6484,4.96093 5.586,0.80078 5.8203,-2.03125 2.6562,-4.68749 -4.7461,-2.77343 -4.3554,3.49609 -3.4961,-2.92968 11.5234,-2.20703 z m -8.8086,1.79688 3.6719,1.1328 -4.8047,0.85938 z"
           style="font-family:'Super Mario 286';-inkscape-font-specification:'Super Mario 286, '"
           id="path18825" />
        <path
           d="m 1114.7353,338.66179 6.4453,-0.97656 2.793,10.93747 4.1992,-10.957 6.7383,0.99609 -7.1094,17.87105 -8.789,-0.625 -4.2774,-17.24605 z"
           style="font-family:'Super Mario 286';-inkscape-font-specification:'Super Mario 286, '"
           id="path18827" />
        <path
           d="m 1153.2118,339.4235 -4.5313,-2.65624 -7.4413,0.625 -4.3555,6.09373 0.332,7.46092 4.6485,4.96093 5.5859,0.80078 5.8203,-2.03125 2.6562,-4.68749 -4.7461,-2.77343 -4.3554,3.49609 -3.4961,-2.92968 11.5234,-2.20703 z m -8.8086,1.79688 3.6719,1.1328 -4.8047,0.85938 z"
           style="font-family:'Super Mario 286';-inkscape-font-specification:'Super Mario 286, '"
           id="path18829" />
        <path
           d="m 1167.7039,345.71255 1.8555,1.99218 5.7812,-1.71874 -1.1914,-4.6289 -5.0781,-3.43749 -4.8437,2.51953 0.059,-2.40234 -6.4844,0.27344 0.039,18.63276 h 7.4023 l -0.3906,-9.37497 z"
           style="font-family:'Super Mario 286';-inkscape-font-specification:'Super Mario 286, '"
           id="path18831" />
        <path
           d="m 1181.1023,349.73598 h 3.1641 l 1.875,3.28124 -1.3086,2.4414 -3.7305,0.83984 -1.7187,-2.92968 1.7187,-3.6328 z"
           style="font-family:'Super Mario 286';-inkscape-font-specification:'Super Mario 286, '"
           id="path18833" />
      </g>
    </g>
  </g>
</svg>
