<?xml version="1.0" encoding="UTF-8" standalone="no"?>
<!-- Created with Inkscape (http://www.inkscape.org/) -->

<svg
   width="300.35303mm"
   height="150.01765mm"
   viewBox="0 0 300.35303 150.01765"
   version="1.1"
   id="svg5"
   inkscape:version="1.1.2 (1:1.1+202202050950+0a00cf5339)"
   sodipodi:docname="godboard.svg"
   xmlns:inkscape="http://www.inkscape.org/namespaces/inkscape"
   xmlns:sodipodi="http://sodipodi.sourceforge.net/DTD/sodipodi-0.dtd"
   xmlns="http://www.w3.org/2000/svg"
   xmlns:svg="http://www.w3.org/2000/svg">
  <sodipodi:namedview
     id="namedview7"
     pagecolor="#ffffff"
     bordercolor="#666666"
     borderopacity="1.0"
     inkscape:pageshadow="2"
     inkscape:pageopacity="0.0"
     inkscape:pagecheckerboard="0"
     inkscape:document-units="mm"
     showgrid="false"
     inkscape:zoom="0.46929649"
     inkscape:cx="282.3375"
     inkscape:cy="360.11349"
     inkscape:window-width="1920"
     inkscape:window-height="1043"
     inkscape:window-x="0"
     inkscape:window-y="0"
     inkscape:window-maximized="1"
     inkscape:current-layer="layer1" />
  <defs
     id="defs2" />
  <g
     inkscape:label="Layer 1"
     inkscape:groupmode="layer"
     id="layer1"
     transform="translate(-29.897213,-87.146248)">
    <rect
       style="fill:#ffffff;stroke:none;stroke-width:4.99999;stroke-linecap:round;stroke-linejoin:round;stop-color:#000000"
       id="rect12171"
       width="300.35303"
       height="150.01765"
       x="29.897213"
       y="87.146248" />
    <g
       id="g12322"
       transform="matrix(0.79119464,0,0,0.79119464,38.432496,34.980396)">
      <path
         style="fill:#ffd42a;stroke:#000000;stroke-width:4.99999;stroke-linecap:round;stroke-linejoin:round;stop-color:#000000"
         d="m 90.354974,187.46169 c -10.217638,2.07838 -19.576064,7.30027 -28.615214,12.27939 -6.05295,3.33421 -12.510187,5.91463 -18.607792,9.17248 -1.815988,0.97025 -10.331201,5.44081 -11.069035,6.84353 -0.469439,0.89245 0.386221,2.93925 0.659872,3.81553 1.749378,5.6018 4.084218,4.82488 10.028841,4.07105 2.176916,-0.27605 4.360992,-0.52539 6.514908,-0.94468 11.345656,-2.20858 22.535269,-5.61773 33.407829,-9.50476 12.403837,-4.43447 22.520907,-8.37954 30.025557,-19.32182 0.95972,-1.39933 5.47288,-7.45085 5.08983,-9.30263 -0.0802,-0.38808 -10.05236,0.0939 -11.19524,0.16076 -1.68632,0.0986 -15.81882,0.89617 -16.239556,2.73115 z"
         id="path2142" />
      <g
         id="g12041"
         transform="rotate(-12.895505,64.329264,185.50185)">
        <path
           style="fill:#ffffff;stroke:#000000;stroke-width:4.99999;stop-color:#000000"
           d="m 67.746085,139.57055 c 4.768435,15.88467 1.090944,33.39969 2.397969,49.33419"
           id="path1089" />
        <path
           style="fill:#ffffff;stroke:#000000;stroke-width:4.99999;stop-color:#000000"
           d="m 68.806488,88.44423 c -5.396997,-0.385908 -7.772313,1.786681 -10.143982,6.299489 -2.935817,5.586261 -6.104099,14.893411 -4.941681,21.313821 1.79846,9.93349 19.12921,9.64065 25.518686,5.05746 2.91225,-2.08897 4.470707,-5.62974 5.904167,-8.78679 1.926838,-4.24366 4.569655,-10.36129 2.048973,-14.967053 -1.782834,-3.257577 -5.84884,-4.546082 -8.993534,-5.916843 -0.841965,-0.367009 -1.541468,-0.989356 -2.367029,-1.370385 -2.801363,-1.29294 -5.974776,-1.47111 -8.999193,-1.71872"
           id="path966" />
        <path
           style="fill:#ffffff;stroke:#000000;stroke-width:4.99999;stop-color:#000000"
           d="m 67.241377,97.664031 c -0.659038,2.485769 -0.927312,5.060129 -1.110226,7.619699"
           id="path968" />
        <path
           style="fill:#ffffff;stroke:#000000;stroke-width:4.99999;stop-color:#000000"
           d="m 75.408837,100.02911 c 0.3971,2.54055 0.264398,5.03946 -0.08222,7.56313"
           id="path970" />
        <path
           style="fill:#ffffff;stroke:#000000;stroke-width:4.99999;stop-color:#000000"
           d="m 67.031718,113.20415 c -10.665725,-3.76353 -17.785995,-1.36529 -19.561971,10.62415 -0.383826,2.59117 -0.418754,5.05021 -0.454277,7.67297 -0.07809,5.76565 -0.899154,14.90912 5.439241,17.92669 1.707909,0.8131 5.087194,2.38363 6.214774,0.0345 0.04914,-0.10238 1.532977,-4.48546 1.980994,-3.72716 1.896168,3.20943 2.678723,7.04991 3.743356,10.58694 0.103735,0.34464 -0.311869,-0.68212 -0.286223,-1.04112 0.09622,-1.347 0.860144,-2.27513 1.870855,-3.11667 2.437225,-2.0293 4.841846,-4.07254 7.170605,-6.25044 0.658786,-0.6161 1.605767,-2.27916 2.438228,-2.60829 0.224859,-0.0889 5.172798,5.43609 5.656527,5.98038 0.556488,0.62615 2.274808,2.45872 1.734852,1.81825 -0.606819,-0.71977 0.410583,-2.82939 0.580911,-3.55325 0.379913,-1.61456 0.800404,-3.27146 1.016188,-4.91759 0.208082,-1.58735 0.130821,-3.35265 0.633926,-4.89798 0.05201,-0.15977 0.42073,0.31657 0.531553,0.24794 0.367377,-0.22752 0.590116,-0.92667 0.664432,-1.30887 1.133825,-5.83118 -2.415394,-22.19047 -8.651954,-24.12428 -1.277829,-0.39623 -7.665453,-1.17141 -8.822618,-0.54123 -1.263896,0.6883 0.173916,0.93415 -1.899399,1.19506 z"
           id="path974" />
        <path
           style="fill:#ffffff;stroke:#000000;stroke-width:4.99999;stroke-linecap:round;stop-color:#000000"
           d="m 70.179757,165.5069 c -5.814356,1.58174 -20.122639,0.93361 -25.132178,3.67707"
           id="path1091" />
        <path
           style="fill:#ffffff;stroke:#000000;stroke-width:4.99999;stroke-linecap:round;stop-color:#000000"
           d="m 70.179757,165.5069 c 10.040041,-1.57245 20.708215,1.09794 30.624893,-1.48219"
           id="path1093" />
        <path
           style="fill:#ffffff;stroke:#000000;stroke-width:4.99999;stroke-linecap:round;stop-color:#000000"
           d="m 70.144054,188.90474 c -4.218119,6.54358 -9.418468,12.10141 -14.863802,17.80377"
           id="path1095" />
        <path
           style="fill:#ffffff;stroke:#000000;stroke-width:4.99999;stroke-linecap:round;stop-color:#000000"
           d="m 70.144054,188.90474 c 5.819593,5.10826 9.751087,13.51262 16.050316,17.726"
           id="path1099" />
      </g>
      <path
         style="fill:#ffffff;stroke:#000000;stroke-width:4.99999;stop-color:#000000"
         d="m 54.212304,224.83863 c -3.1745,-0.88825 -6.460765,-0.89601 -6.343054,3.10595 0.07046,2.39557 0.474363,2.65809 2.848062,3.36068 0.902771,0.26721 1.764302,0.48144 2.709222,0.50395 1.012981,0.0241 2.417942,0.061 3.247178,-0.62403 2.690527,-2.22261 -0.786172,-6.92855 -2.461408,-6.34655 z"
         id="path2500" />
      <path
         style="fill:#ffffff;stroke:#000000;stroke-width:4.99999;stop-color:#000000"
         d="m 107.0335,201.8716 c -2.60182,0.73574 -2.49698,6.81056 -1.0501,8.59018 1.26927,1.56117 5.85723,1.85228 7.4439,0.66277 1.00215,-0.75131 0.96661,-2.86297 0.99664,-3.94422 0.0319,-1.14967 0.17325,-2.39804 -0.29069,-3.49194 -0.86303,-2.03491 -3.15953,-2.74581 -5.25608,-2.85776 -0.12124,-0.006 -1.98142,-0.0673 -2.00037,0.0415 -0.009,0.0528 0.15209,0.96306 0.1567,0.99944 z"
         id="path2502" />
      <g
         aria-label="godboard"
         transform="matrix(0.80353018,0,0,0.80353018,-353.14683,-59.933742)"
         id="text2940"
         style="font-size:39.9999px;line-height:1;font-family:Acre;-inkscape-font-specification:Acre;letter-spacing:0px;word-spacing:0px;baseline-shift:baseline;opacity:1;vector-effect:none;stroke-width:0.999999;stop-color:#000000;stop-opacity:1">
        <path
           d="m 638.09292,269.41947 -1.95312,-2.28515 -5.29296,-1.17187 -5.85936,2.18749 -1.99218,7.57811 3.10546,7.0117 6.85545,2.92968 4.08202,-1.91406 -0.13672,4.78515 -2.1289,0.97656 -4.76561,-3.14452 -4.68749,3.59374 3.90624,3.88671 5.64452,2.53905 8.45701,-4.08202 1.38671,-25.52728 -6.46482,-0.9375 z m -0.9375,7.61717 -0.8789,1.44531 -2.57812,0.41016 -2.59765,-2.01172 -0.19531,-1.42578 1.66015,-1.83593 1.62109,0.13672 2.85155,2.03124 z"
           style="font-family:'Super Mario 286';-inkscape-font-specification:'Super Mario 286, '"
           id="path12080" />
        <path
           d="m 664.77254,267.73979 2.83202,9.04295 -5.15623,8.45701 -11.05466,-1.32813 -5.21483,-10.21481 4.31639,-7.48045 7.46092,-1.42578 z m -7.92967,4.2578 -2.4414,2.38281 1.66015,2.3828 2.69531,0.0781 0.97656,-2.87109 -2.89062,-1.97265 z"
           style="font-family:'Super Mario 286';-inkscape-font-specification:'Super Mario 286, '"
           id="path12082" />
        <path
           d="m 691.12013,255.84529 -8.33982,0.0976 0.89843,11.75779 -2.79296,-2.96875 -5.66405,0.46875 -4.90233,6.23046 -0.19531,8.92576 4.96092,5.1367 5.58593,-0.50781 3.20311,-1.8164 0.66406,2.14843 7.34374,-0.37109 z m -7.61717,20.48823 -2.51952,1.87499 -3.49609,-3.45702 2.55859,-2.96874 3.02733,1.83593 z"
           style="font-family:'Super Mario 286';-inkscape-font-specification:'Super Mario 286, '"
           id="path12084" />
        <path
           d="m 694.32325,283.98975 7.30467,0.72265 0.78125,-2.1289 3.10546,1.97265 5.54686,0.78125 5.1953,-4.90233 0.23437,-8.92576 -4.58983,-6.4453 -5.64452,-0.74218 -2.92968,2.83202 1.46484,-11.69919 -8.32029,-0.50781 z m 9.33591,-10.89841 3.10546,-1.69922 2.42187,3.10546 -3.67186,3.28125 -2.42187,-1.99219 z"
           style="font-family:'Super Mario 286';-inkscape-font-specification:'Super Mario 286, '"
           id="path12086" />
        <path
           d="m 736.95986,267.73979 2.83202,9.04295 -5.15623,8.45701 -11.05466,-1.32813 -5.21483,-10.21481 4.31639,-7.48045 7.46092,-1.42578 z m -7.92967,4.2578 -2.4414,2.38281 1.66015,2.3828 2.69531,0.0781 0.97656,-2.87109 -2.89062,-1.97265 z"
           style="font-family:'Super Mario 286';-inkscape-font-specification:'Super Mario 286, '"
           id="path12088" />
        <path
           d="m 755.10435,265.68901 -8.76951,-1.24999 -4.68749,5.7617 4.58983,3.33984 3.88671,-3.04687 0.89844,2.71484 -5.41014,1.17187 -3.78906,3.57421 -0.11718,3.88671 5.07811,3.78905 6.79686,-2.32421 3.16405,2.53905 4.17968,-3.49608 -3.78906,-2.42187 0.89844,-10.56638 z m -3.22265,14.35544 -4.80467,-0.625 4.72655,-1.8164 z"
           style="font-family:'Super Mario 286';-inkscape-font-specification:'Super Mario 286, '"
           id="path12090" />
        <path
           d="m 772.70197,274.12649 1.85546,1.99218 5.78124,-1.71874 -1.1914,-4.6289 -5.07812,-3.43749 -4.84374,2.51953 0.0586,-2.40234 -6.48436,0.27344 0.0391,18.63276 h 7.40233 l -0.39063,-9.37497 z"
           style="font-family:'Super Mario 286';-inkscape-font-specification:'Super Mario 286, '"
           id="path12092" />
        <path
           d="m 804.49875,255.84529 -8.33982,0.0976 0.89844,11.75779 -2.79297,-2.96875 -5.66404,0.46875 -4.90234,6.23046 -0.19531,8.92576 4.96093,5.1367 5.58592,-0.50781 3.20312,-1.8164 0.66406,2.14843 7.34373,-0.37109 z m -7.61717,20.48823 -2.51952,1.87499 -3.49609,-3.45702 2.55859,-2.96874 3.02734,1.83593 z"
           style="font-family:'Super Mario 286';-inkscape-font-specification:'Super Mario 286, '"
           id="path12094" />
      </g>
      <g
         aria-label="TM"
         transform="matrix(0.40395097,0,0,0.40395097,45.865894,35.167743)"
         id="text9754"
         style="font-size:39.9999px;line-height:1;font-family:Acre;-inkscape-font-specification:Acre;letter-spacing:0px;word-spacing:0px;baseline-shift:baseline;opacity:1;vector-effect:none;stroke-width:0.999999;stop-color:#000000;stop-opacity:1">
        <path
           d="m 622.40936,255.37654 29.55071,0.52734 v 11.99216 l -9.99997,-1.64062 2.77343,18.84761 h -14.31637 l 2.14843,-18.84761 -10.15623,-0.50781 z"
           style="font-family:'Super Mario 286';-inkscape-font-specification:'Super Mario 286, '"
           id="path12097" />
        <path
           d="m 654.03038,282.0171 14.27731,-26.42572 h 8.43748 l 2.81249,7.98826 4.96092,-8.02732 7.48045,-0.17578 8.18358,28.76946 -10.66404,0.8789 -2.05077,-7.28514 -2.4414,-7.03123 -7.36327,6.56249 -5.62498,-7.48045 -6.77733,14.35543 z"
           style="font-family:'Super Mario 286';-inkscape-font-specification:'Super Mario 286, '"
           id="path12099" />
      </g>
    </g>
  </g>
</svg>
